<mxfile host="app.diagrams.net" modified="2024-06-09T06:27:11.700Z" agent="Mozilla/5.0 (Windows NT 10.0; Win64; x64) AppleWebKit/537.36 (KHTML, like Gecko) Chrome/125.0.0.0 Safari/537.36 Edg/125.0.0.0" etag="nPQSLj8uFt4sO0Gmd7UL" version="24.5.2" type="device">
  <diagram name="Page-1" id="LA9-Y1V1zJIlQjxkmPLj">
    <mxGraphModel dx="2769" dy="3095" grid="1" gridSize="10" guides="1" tooltips="1" connect="1" arrows="1" fold="1" page="1" pageScale="1" pageWidth="827" pageHeight="1169" math="0" shadow="0">
      <root>
        <mxCell id="0" />
        <mxCell id="1" parent="0" />
        <mxCell id="jvpaFaB3sVlppenhrqSz-1" value="marketing expert" style="html=1;shape=mxgraph.sysml.actPart;strokeWidth=3;verticalAlign=top;rotation=0;whiteSpace=wrap;" vertex="1" parent="1">
          <mxGeometry x="2637" y="20" width="125" height="1090" as="geometry" />
        </mxCell>
        <mxCell id="jvpaFaB3sVlppenhrqSz-2" value="Website (Front)" style="html=1;shape=mxgraph.sysml.actPart;strokeWidth=3;verticalAlign=top;rotation=0;whiteSpace=wrap;" vertex="1" parent="1">
          <mxGeometry x="2767" y="20" width="125" height="1090" as="geometry" />
        </mxCell>
        <mxCell id="jvpaFaB3sVlppenhrqSz-3" value="Website (Back)" style="html=1;shape=mxgraph.sysml.actPart;strokeWidth=3;verticalAlign=top;rotation=0;whiteSpace=wrap;" vertex="1" parent="1">
          <mxGeometry x="2897" y="20" width="125" height="1090" as="geometry" />
        </mxCell>
        <mxCell id="jvpaFaB3sVlppenhrqSz-4" value="(D.B)" style="html=1;shape=mxgraph.sysml.actPart;strokeWidth=3;verticalAlign=top;rotation=0;whiteSpace=wrap;" vertex="1" parent="1">
          <mxGeometry x="3027" y="20" width="125" height="1090" as="geometry" />
        </mxCell>
        <mxCell id="jvpaFaB3sVlppenhrqSz-5" style="edgeStyle=orthogonalEdgeStyle;rounded=0;orthogonalLoop=1;jettySize=auto;html=1;" edge="1" parent="1" source="jvpaFaB3sVlppenhrqSz-6" target="jvpaFaB3sVlppenhrqSz-10">
          <mxGeometry relative="1" as="geometry" />
        </mxCell>
        <mxCell id="jvpaFaB3sVlppenhrqSz-6" value="ورود به صفحه اصلی" style="shape=rect;html=1;rounded=1;whiteSpace=wrap;align=center;" vertex="1" parent="1">
          <mxGeometry x="2779.5" y="100" width="100" height="50" as="geometry" />
        </mxCell>
        <mxCell id="jvpaFaB3sVlppenhrqSz-7" style="edgeStyle=orthogonalEdgeStyle;rounded=0;orthogonalLoop=1;jettySize=auto;html=1;" edge="1" parent="1" source="jvpaFaB3sVlppenhrqSz-8" target="jvpaFaB3sVlppenhrqSz-6">
          <mxGeometry relative="1" as="geometry" />
        </mxCell>
        <mxCell id="jvpaFaB3sVlppenhrqSz-8" value="" style="shape=ellipse;html=1;fillColor=strokeColor;strokeWidth=2;verticalLabelPosition=bottom;verticalAlignment=top;perimeter=ellipsePerimeter;" vertex="1" parent="1">
          <mxGeometry x="2689.5" y="60" width="20" height="20" as="geometry" />
        </mxCell>
        <mxCell id="jvpaFaB3sVlppenhrqSz-9" style="edgeStyle=orthogonalEdgeStyle;rounded=0;orthogonalLoop=1;jettySize=auto;html=1;" edge="1" parent="1" source="jvpaFaB3sVlppenhrqSz-10" target="jvpaFaB3sVlppenhrqSz-20">
          <mxGeometry relative="1" as="geometry" />
        </mxCell>
        <mxCell id="jvpaFaB3sVlppenhrqSz-10" value="زدن بر روی dropdown&amp;nbsp;&lt;div&gt;گزارشات&lt;/div&gt;" style="shape=rect;html=1;rounded=1;whiteSpace=wrap;align=center;" vertex="1" parent="1">
          <mxGeometry x="2779.5" y="180" width="100" height="50" as="geometry" />
        </mxCell>
        <mxCell id="jvpaFaB3sVlppenhrqSz-11" style="edgeStyle=orthogonalEdgeStyle;rounded=0;orthogonalLoop=1;jettySize=auto;html=1;" edge="1" parent="1" source="jvpaFaB3sVlppenhrqSz-12" target="jvpaFaB3sVlppenhrqSz-14">
          <mxGeometry relative="1" as="geometry" />
        </mxCell>
        <mxCell id="jvpaFaB3sVlppenhrqSz-12" value="انتخاب کاربر موجود&amp;nbsp;&lt;br&gt;(تازه ثبت نام کرده)" style="shape=rect;html=1;rounded=1;whiteSpace=wrap;align=center;" vertex="1" parent="1">
          <mxGeometry x="2779.5" y="340" width="100" height="50" as="geometry" />
        </mxCell>
        <mxCell id="jvpaFaB3sVlppenhrqSz-13" style="edgeStyle=orthogonalEdgeStyle;rounded=0;orthogonalLoop=1;jettySize=auto;html=1;" edge="1" parent="1" source="jvpaFaB3sVlppenhrqSz-14" target="jvpaFaB3sVlppenhrqSz-16">
          <mxGeometry relative="1" as="geometry" />
        </mxCell>
        <mxCell id="jvpaFaB3sVlppenhrqSz-14" value="کلیک بر روی&lt;br&gt;افزودن گزارش" style="shape=rect;html=1;rounded=1;whiteSpace=wrap;align=center;" vertex="1" parent="1">
          <mxGeometry x="2779.5" y="420" width="100" height="50" as="geometry" />
        </mxCell>
        <mxCell id="jvpaFaB3sVlppenhrqSz-15" value="" style="edgeStyle=orthogonalEdgeStyle;rounded=0;orthogonalLoop=1;jettySize=auto;html=1;" edge="1" parent="1" source="jvpaFaB3sVlppenhrqSz-16" target="jvpaFaB3sVlppenhrqSz-18">
          <mxGeometry relative="1" as="geometry" />
        </mxCell>
        <mxCell id="jvpaFaB3sVlppenhrqSz-16" value="ثبت متن گزارش در textarea" style="shape=rect;html=1;rounded=1;whiteSpace=wrap;align=center;" vertex="1" parent="1">
          <mxGeometry x="2779.5" y="510" width="100" height="50" as="geometry" />
        </mxCell>
        <mxCell id="jvpaFaB3sVlppenhrqSz-17" style="edgeStyle=orthogonalEdgeStyle;rounded=0;orthogonalLoop=1;jettySize=auto;html=1;" edge="1" parent="1" source="jvpaFaB3sVlppenhrqSz-18" target="jvpaFaB3sVlppenhrqSz-22">
          <mxGeometry relative="1" as="geometry" />
        </mxCell>
        <mxCell id="jvpaFaB3sVlppenhrqSz-18" value="ثبت تاریخ گزارش" style="shape=rect;html=1;rounded=1;whiteSpace=wrap;align=center;" vertex="1" parent="1">
          <mxGeometry x="2779.5" y="590" width="100" height="50" as="geometry" />
        </mxCell>
        <mxCell id="jvpaFaB3sVlppenhrqSz-19" style="edgeStyle=orthogonalEdgeStyle;rounded=0;orthogonalLoop=1;jettySize=auto;html=1;" edge="1" parent="1" source="jvpaFaB3sVlppenhrqSz-20" target="jvpaFaB3sVlppenhrqSz-12">
          <mxGeometry relative="1" as="geometry" />
        </mxCell>
        <mxCell id="jvpaFaB3sVlppenhrqSz-20" value="انتخاب زیر منو&lt;br&gt;گزارشات marketing expert" style="shape=rect;html=1;rounded=1;whiteSpace=wrap;align=center;" vertex="1" parent="1">
          <mxGeometry x="2779.5" y="260" width="100" height="50" as="geometry" />
        </mxCell>
        <mxCell id="jvpaFaB3sVlppenhrqSz-21" style="edgeStyle=orthogonalEdgeStyle;rounded=0;orthogonalLoop=1;jettySize=auto;html=1;" edge="1" parent="1" source="jvpaFaB3sVlppenhrqSz-22" target="jvpaFaB3sVlppenhrqSz-24">
          <mxGeometry relative="1" as="geometry">
            <Array as="points">
              <mxPoint x="2960" y="698" />
            </Array>
          </mxGeometry>
        </mxCell>
        <mxCell id="jvpaFaB3sVlppenhrqSz-22" value="انتخاب تیم فنی گزارش در صورت خالی بودن" style="shape=rect;html=1;rounded=1;whiteSpace=wrap;align=center;" vertex="1" parent="1">
          <mxGeometry x="2779.5" y="673" width="100" height="50" as="geometry" />
        </mxCell>
        <mxCell id="jvpaFaB3sVlppenhrqSz-23" style="edgeStyle=orthogonalEdgeStyle;rounded=0;orthogonalLoop=1;jettySize=auto;html=1;" edge="1" parent="1" source="jvpaFaB3sVlppenhrqSz-24" target="jvpaFaB3sVlppenhrqSz-26">
          <mxGeometry relative="1" as="geometry">
            <Array as="points">
              <mxPoint x="3087" y="738" />
            </Array>
          </mxGeometry>
        </mxCell>
        <mxCell id="jvpaFaB3sVlppenhrqSz-24" value="برسی داده ها" style="shape=rect;html=1;rounded=1;whiteSpace=wrap;align=center;" vertex="1" parent="1">
          <mxGeometry x="2909.5" y="723" width="100" height="50" as="geometry" />
        </mxCell>
        <mxCell id="jvpaFaB3sVlppenhrqSz-25" style="edgeStyle=orthogonalEdgeStyle;rounded=0;orthogonalLoop=1;jettySize=auto;html=1;" edge="1" parent="1" source="jvpaFaB3sVlppenhrqSz-26" target="jvpaFaB3sVlppenhrqSz-28">
          <mxGeometry relative="1" as="geometry">
            <Array as="points">
              <mxPoint x="3090" y="838" />
            </Array>
          </mxGeometry>
        </mxCell>
        <mxCell id="jvpaFaB3sVlppenhrqSz-26" value="ثبت داده ها" style="shape=rect;html=1;rounded=1;whiteSpace=wrap;align=center;" vertex="1" parent="1">
          <mxGeometry x="3039.5" y="763" width="100" height="50" as="geometry" />
        </mxCell>
        <mxCell id="jvpaFaB3sVlppenhrqSz-27" style="edgeStyle=orthogonalEdgeStyle;rounded=0;orthogonalLoop=1;jettySize=auto;html=1;" edge="1" parent="1" source="jvpaFaB3sVlppenhrqSz-28" target="jvpaFaB3sVlppenhrqSz-29">
          <mxGeometry relative="1" as="geometry" />
        </mxCell>
        <mxCell id="jvpaFaB3sVlppenhrqSz-28" value="تایید ثبت" style="shape=rect;html=1;rounded=1;whiteSpace=wrap;align=center;" vertex="1" parent="1">
          <mxGeometry x="2779.5" y="813" width="100" height="50" as="geometry" />
        </mxCell>
        <mxCell id="jvpaFaB3sVlppenhrqSz-29" value="" style="html=1;shape=mxgraph.sysml.actFinal;strokeWidth=2;verticalLabelPosition=bottom;verticalAlignment=top;" vertex="1" parent="1">
          <mxGeometry x="2809.5" y="893" width="40" height="40" as="geometry" />
        </mxCell>
      </root>
    </mxGraphModel>
  </diagram>
</mxfile>
